<svg xmlns="http://www.w3.org/2000/svg" xmlns:xlink="http://www.w3.org/1999/xlink" viewBox="0,0,256,256" width="24px" height="24px"><g fill="#f1e7d3" fill-rule="nonzero" stroke="none" stroke-width="1" stroke-linecap="butt" stroke-linejoin="miter" stroke-miterlimit="10" stroke-dasharray="" stroke-dashoffset="0" font-family="none" font-weight="none" font-size="none" text-anchor="none" style="mix-blend-mode: normal"><g transform="scale(10.66667,10.66667)"><path d="M12.826,14.789c-0.397,0.582 -1.255,0.582 -1.652,0l-4.343,-6.367c-0.209,-0.266 -0.529,-0.422 -0.868,-0.422v0c-0.733,0 -1.262,0.702 -1.061,1.407l2.636,10.228c0.57,1.992 2.39,3.365 4.462,3.365v0c2.072,0 3.892,-1.373 4.462,-3.365l2.636,-10.228c0.201,-0.705 -0.328,-1.407 -1.061,-1.407v0c-0.339,0 -0.659,0.156 -0.868,0.422z"></path><path d="M16,16h-8v-9c0,-3 1,-6 4,-6v0c3,0 4,3 4,6z" opacity="0.35"></path><circle cx="13" cy="4" r="1"></circle><circle cx="13" cy="8" r="1"></circle><circle cx="10" cy="6" r="1"></circle></g></g></svg>