<svg xmlns="http://www.w3.org/2000/svg" xmlns:xlink="http://www.w3.org/1999/xlink" viewBox="0,0,256,256" width="24px" height="24px"><g fill="#221803" fill-rule="nonzero" stroke="none" stroke-width="1" stroke-linecap="butt" stroke-linejoin="miter" stroke-miterlimit="10" stroke-dasharray="" stroke-dashoffset="0" font-family="none" font-weight="none" font-size="none" text-anchor="none" style="mix-blend-mode: normal"><g transform="scale(10.66667,10.66667)"><circle cx="12" cy="12" r="10" opacity="0.35"></circle><path d="M15.124,14.213c0,-3.402 -3.755,-2.937 -3.755,-4.71c0,-1.044 0.821,-1.154 1.105,-1.154c0.28,0 0.528,0.067 0.738,0.161c0.494,0.223 1.079,0.016 1.392,-0.426c0.401,-0.567 0.194,-1.364 -0.439,-1.65c-0.347,-0.156 -0.78,-0.282 -1.305,-0.332v-0.494c0,-0.455 -0.369,-0.823 -0.823,-0.823c-0.454,0 -0.823,0.369 -0.823,0.823v0.668c-1.379,0.459 -2.275,1.72 -2.275,3.334c0,3.57 3.709,2.925 3.709,4.781c0,0.357 -0.169,1.136 -1.089,1.136c-0.409,0 -0.762,-0.115 -1.049,-0.266c-0.488,-0.255 -1.093,-0.067 -1.404,0.388l-0.033,0.048c-0.359,0.525 -0.214,1.261 0.339,1.575c0.465,0.264 1.034,0.469 1.72,0.541v0.578c0,0.455 0.369,0.823 0.823,0.823c0.455,0 0.823,-0.369 0.823,-0.823v-0.726c1.524,-0.466 2.346,-1.856 2.346,-3.452z"></path></g></g></svg>