<svg xmlns="http://www.w3.org/2000/svg" xmlns:xlink="http://www.w3.org/1999/xlink" viewBox="0,0,256,256" width="24px" height="24px"><g fill="#f1e7d3" fill-rule="nonzero" stroke="none" stroke-width="1" stroke-linecap="butt" stroke-linejoin="miter" stroke-miterlimit="10" stroke-dasharray="" stroke-dashoffset="0" font-family="none" font-weight="none" font-size="none" text-anchor="none" style="mix-blend-mode: normal"><g transform="scale(10.66667,10.66667)"><path d="M18.89,7.058c0.07,-0.173 0.11,-0.36 0.11,-0.558c0,-0.828 -0.672,-1.5 -1.5,-1.5c-0.237,0 -0.459,0.06 -0.658,0.158c0.098,-0.199 0.158,-0.421 0.158,-0.658c0,-0.828 -0.672,-1.5 -1.5,-1.5c-0.198,0 -0.385,0.04 -0.558,0.11c-0.172,-0.638 -0.749,-1.11 -1.442,-1.11c-0.828,0 -1.5,0.672 -1.5,1.5c0,0.198 0.04,0.385 0.11,0.558c-0.23,0.062 -0.438,0.176 -0.61,0.332c-0.266,-0.24 -0.614,-0.39 -1,-0.39c-0.198,0 -0.385,0.04 -0.558,0.11c-0.172,-0.638 -0.749,-1.11 -1.442,-1.11c-0.828,0 -1.5,0.672 -1.5,1.5c0,0.237 0.06,0.459 0.158,0.658c-0.199,-0.098 -0.421,-0.158 -0.658,-0.158c-0.828,0 -1.5,0.672 -1.5,1.5c0,0.198 0.04,0.385 0.11,0.558c-0.638,0.172 -1.11,0.749 -1.11,1.442c0,0.828 0.672,1.5 1.5,1.5h13c0.828,0 1.5,-0.672 1.5,-1.5c0,-0.693 -0.472,-1.27 -1.11,-1.442z" opacity="0.35"></path><circle cx="12" cy="7" r="1"></circle><path d="M19.646,9h-2.646c0,-0.552 -0.448,-1 -1,-1c-0.552,0 -1,0.448 -1,1h-6c0,-0.552 -0.448,-1 -1,-1c-0.552,0 -1,0.448 -1,1h-2.646c-0.673,0 -1.154,0.651 -0.956,1.294l2.95,9.588c0.388,1.259 1.551,2.118 2.868,2.118h5.569c1.317,0 2.48,-0.859 2.867,-2.118l2.95,-9.588c0.198,-0.643 -0.283,-1.294 -0.956,-1.294z"></path></g></g></svg>