<svg xmlns="http://www.w3.org/2000/svg" xmlns:xlink="http://www.w3.org/1999/xlink" viewBox="0,0,256,256" width="24px" height="24px"><g fill="#221803" fill-rule="nonzero" stroke="none" stroke-width="1" stroke-linecap="butt" stroke-linejoin="miter" stroke-miterlimit="10" stroke-dasharray="" stroke-dashoffset="0" font-family="none" font-weight="none" font-size="none" text-anchor="none" style="mix-blend-mode: normal"><g transform="scale(10.66667,10.66667)"><path d="M20,14c0,0.512 -0.195,1.023 -0.586,1.414l-6,6c-0.781,0.781 -2.047,0.781 -2.828,0l-6,-6c-0.781,-0.781 -0.781,-2.047 0,-2.828c0.781,-0.781 2.047,-0.781 2.828,0l4.586,4.586l4.586,-4.586c0.781,-0.781 2.047,-0.781 2.828,0c0.391,0.391 0.586,0.902 0.586,1.414z"></path><path d="M20,4c0,0.512 -0.195,1.023 -0.586,1.414l-6,6c-0.781,0.781 -2.047,0.781 -2.828,0l-6,-6c-0.781,-0.781 -0.781,-2.047 0,-2.828c0.781,-0.781 2.047,-0.781 2.828,0l4.586,4.586l4.586,-4.586c0.781,-0.781 2.047,-0.781 2.828,0c0.391,0.391 0.586,0.902 0.586,1.414z" opacity="0.35"></path></g></g></svg>