<svg width="48" height="48" viewBox="0 0 48 48" fill="none" xmlns="http://www.w3.org/2000/svg">
<rect width="48" height="48" rx="10" fill="#B22404"/>
<path d="M24.8718 27.5474C24.2803 28.4146 23.0017 28.4146 22.4102 27.5474L15.9385 18.0597C15.6271 17.6634 15.1502 17.4309 14.6451 17.4309C13.5528 17.4309 12.7646 18.477 13.0641 19.5275L16.992 34.7685C17.8414 37.7369 20.5535 39.7828 23.641 39.7828C26.7285 39.7828 29.4406 37.7369 30.2899 34.7685L34.2179 19.5275C34.5174 18.477 33.7292 17.4309 32.6369 17.4309C32.1317 17.4309 31.6549 17.6634 31.3435 18.0597L24.8718 27.5474Z" fill="#F3EFE6"/>
<path opacity="0.35" d="M29.6015 29.3519H17.6805V15.9408C17.6805 11.4704 19.1706 7 23.641 7C28.1114 7 29.6015 11.4704 29.6015 15.9408V29.3519Z" fill="#F3EFE6"/>
<path d="M25.1311 12.9605C25.9541 12.9605 26.6212 12.2934 26.6212 11.4704C26.6212 10.6474 25.9541 9.98029 25.1311 9.98029C24.3081 9.98029 23.641 10.6474 23.641 11.4704C23.641 12.2934 24.3081 12.9605 25.1311 12.9605Z" fill="#F3EFE6"/>
<path d="M25.1311 18.9211C25.9541 18.9211 26.6212 18.2539 26.6212 17.4309C26.6212 16.6079 25.9541 15.9408 25.1311 15.9408C24.3081 15.9408 23.641 16.6079 23.641 17.4309C23.641 18.2539 24.3081 18.9211 25.1311 18.9211Z" fill="#F3EFE6"/>
<path d="M20.6607 15.9408C21.4837 15.9408 22.1508 15.2736 22.1508 14.4506C22.1508 13.6277 21.4837 12.9605 20.6607 12.9605C19.8377 12.9605 19.1706 13.6277 19.1706 14.4506C19.1706 15.2736 19.8377 15.9408 20.6607 15.9408Z" fill="#F3EFE6"/>
</svg>
